<svg version="1.1" xmlns="http://www.w3.org/2000/svg" viewBox="0 0 1239.9101799552502 386.5347225084706" width="1239.9101799552502" height="386.5347225084706">
  <!-- svg-source:excalidraw -->
  
  <defs>
    <style class="style-fonts">
      @font-face {
        font-family: "Virgil";
        src: url("https://excalidraw.com/Virgil.woff2");
      }
      @font-face {
        font-family: "Cascadia";
        src: url("https://excalidraw.com/Cascadia.woff2");
      }
      @font-face {
        font-family: "Assistant";
        src: url("https://excalidraw.com/Assistant-Regular.woff2");
      }
    </style>
    
  </defs>
  <rect x="0" y="0" width="1239.9101799552502" height="386.5347225084706" fill="#ffffff"></rect><g stroke-linecap="round" transform="translate(10 42.14236434394792) rotate(0 289.5999755859375 164.80001831054685)"><path d="M32 0 C164.61 1.79, 299.45 1.96, 547.2 0 M32 0 C228.49 -1.19, 424.55 -1.05, 547.2 0 M547.2 0 C566.64 0.58, 579.37 10.35, 579.2 32 M547.2 0 C567.55 0.59, 579.49 11.85, 579.2 32 M579.2 32 C579.02 134.86, 577.15 234.26, 579.2 297.6 M579.2 32 C580.04 98.53, 580.12 164.5, 579.2 297.6 M579.2 297.6 C578.07 319.15, 570.41 327.77, 547.2 329.6 M579.2 297.6 C578.55 317.57, 570.06 327.58, 547.2 329.6 M547.2 329.6 C383.32 329.67, 220.48 329.6, 32 329.6 M547.2 329.6 C419.45 327.53, 291.02 327.97, 32 329.6 M32 329.6 C12.48 330.68, -0.95 318.68, 0 297.6 M32 329.6 C8.47 331.16, 2.28 317.18, 0 297.6 M0 297.6 C2.79 205.65, -0.17 118.05, 0 32 M0 297.6 C-0.1 198.88, -0.45 100.16, 0 32 M0 32 C-1.16 9.51, 11.72 1.61, 32 0 M0 32 C-0.58 8.72, 11.99 -1.96, 32 0" stroke="#1e1e1e" stroke-width="2" fill="none"></path></g><g stroke-linecap="round" transform="translate(190.19642719671225 55.66071942743383) rotate(0 61.12439223271241 15.796200916323642)"><path d="M7.9 0 C45.79 0.48, 87.33 -1.85, 114.35 0 M7.9 0 C41.66 0.03, 75.05 -0.41, 114.35 0 M114.35 0 C119.95 -0.18, 121.09 3.7, 122.25 7.9 M114.35 0 C118.72 0.7, 122.31 2.31, 122.25 7.9 M122.25 7.9 C122.28 11.46, 121.33 15.89, 122.25 23.69 M122.25 7.9 C122.22 12.34, 121.73 15.81, 122.25 23.69 M122.25 23.69 C123.22 29.13, 120.16 30.45, 114.35 31.59 M122.25 23.69 C121.36 30.87, 120.15 32.51, 114.35 31.59 M114.35 31.59 C82.52 30.58, 52.48 28.94, 7.9 31.59 M114.35 31.59 C80.4 30.57, 46.64 30.7, 7.9 31.59 M7.9 31.59 C1.25 33.36, -1.87 28.71, 0 23.69 M7.9 31.59 C3.64 30.91, -0.66 29.61, 0 23.69 M0 23.69 C-0.33 16.24, -0.91 11.14, 0 7.9 M0 23.69 C0.07 17.97, 0.7 13.19, 0 7.9 M0 7.9 C-1.94 2.17, 1.73 -0.51, 7.9 0 M0 7.9 C-0.27 2.6, 2.79 -1.02, 7.9 0" stroke="#1e1e1e" stroke-width="2" fill="none"></path></g><g stroke-linecap="round" transform="translate(319.3131216867564 55.66071069443461) rotate(0 32.05024678155672 15)"><path d="M7.5 0 C20.8 0.82, 38.04 1.47, 56.6 0 M7.5 0 C18.75 -0.57, 30.16 -0.69, 56.6 0 M56.6 0 C60.65 1.05, 63 2.22, 64.1 7.5 M56.6 0 C59.42 -1.45, 65.19 0.65, 64.1 7.5 M64.1 7.5 C64.19 13.56, 64.32 18.24, 64.1 22.5 M64.1 7.5 C64.62 11.38, 64.42 17, 64.1 22.5 M64.1 22.5 C63.22 27.11, 63.04 31.77, 56.6 30 M64.1 22.5 C62.2 26.4, 61.19 31.1, 56.6 30 M56.6 30 C41.62 28.74, 28.87 29.5, 7.5 30 M56.6 30 C39.8 29.84, 24.01 28.7, 7.5 30 M7.5 30 C4.48 28.68, -0.77 29.08, 0 22.5 M7.5 30 C1.02 31.75, -2.21 27.45, 0 22.5 M0 22.5 C0.02 18.73, 0.67 14.09, 0 7.5 M0 22.5 C0.08 17.85, -0.73 11.99, 0 7.5 M0 7.5 C1.68 4.05, 2.7 -0.91, 7.5 0 M0 7.5 C0.55 0.56, 2.85 1.5, 7.5 0" stroke="#1e1e1e" stroke-width="2" fill="none"></path></g><g transform="translate(326.5553850698756 60.66071069443461) rotate(0 24.8079833984375 10)"><text x="24.8079833984375" y="14.016" font-family="Virgil, Segoe UI Emoji" font-size="16px" fill="#1e1e1e" text-anchor="middle" style="white-space: pre;" direction="ltr" dominant-baseline="alphabetic">Submit</text></g><g stroke-linecap="round" transform="translate(195.2328875617004 102.8203647699533) rotate(0 92.25891418445354 85.6199484667869)"><path d="M32 0 C69.54 0.87, 103.53 2.9, 152.52 0 M32 0 C74.89 0.39, 119.08 0.32, 152.52 0 M152.52 0 C173.78 -1.81, 182.64 11.29, 184.52 32 M152.52 0 C174.85 0.04, 185.33 11.35, 184.52 32 M184.52 32 C184.61 66.25, 185.47 101.44, 184.52 139.24 M184.52 32 C184.56 52.61, 185.4 74.81, 184.52 139.24 M184.52 139.24 C186.43 160.85, 175.22 171.49, 152.52 171.24 M184.52 139.24 C185.33 158.62, 172.54 171.18, 152.52 171.24 M152.52 171.24 C110.65 171.32, 64.08 171.45, 32 171.24 M152.52 171.24 C117.21 172.33, 81.35 172.4, 32 171.24 M32 171.24 C12.44 170.59, 0.1 162.26, 0 139.24 M32 171.24 C12.03 170.76, 1.19 160.78, 0 139.24 M0 139.24 C0.67 105.94, -0.92 72.54, 0 32 M0 139.24 C0.54 100.27, 0.52 62.51, 0 32 M0 32 C-0.56 10.83, 9.67 0.91, 32 0 M0 32 C-0.78 11.21, 8.53 2.28, 32 0" stroke="#1e1e1e" stroke-width="2" fill="none"></path></g><g transform="translate(253.91582060601723 178.44031323674017) rotate(0 33.57598114013672 10)"><text x="33.57598114013672" y="14.016" font-family="Virgil, Segoe UI Emoji" font-size="16px" fill="#1e1e1e" text-anchor="middle" style="white-space: pre;" direction="ltr" dominant-baseline="alphabetic">QR Code</text></g><g stroke-linecap="round" transform="translate(193.40143790206923 291.4589810720281) rotate(0 50.593600354829164 16.254050231732663)"><path d="M8.13 0 C28.36 1.33, 51.11 0.52, 93.06 0 M8.13 0 C30.87 0.49, 53.91 1.46, 93.06 0 M93.06 0 C96.58 -1.98, 100.48 4.15, 101.19 8.13 M93.06 0 C98.15 2.21, 99.27 1.39, 101.19 8.13 M101.19 8.13 C102.69 14.4, 100.87 19.83, 101.19 24.38 M101.19 8.13 C101.42 12.41, 101.62 16.37, 101.19 24.38 M101.19 24.38 C102.95 28.24, 98.15 31.58, 93.06 32.51 M101.19 24.38 C102.82 29.85, 96.93 33.53, 93.06 32.51 M93.06 32.51 C65.6 32.38, 36.59 31.29, 8.13 32.51 M93.06 32.51 C58.35 31.47, 25.13 31.05, 8.13 32.51 M8.13 32.51 C4.21 34.49, -0.14 30.88, 0 24.38 M8.13 32.51 C4.43 30.9, 1.17 30.82, 0 24.38 M0 24.38 C1.56 18.78, 0.65 15.23, 0 8.13 M0 24.38 C0.39 20.28, -0.32 15.7, 0 8.13 M0 8.13 C-1.71 2.17, 3.59 -1.21, 8.13 0 M0 8.13 C0.48 3.85, 1.3 -0.13, 8.13 0" stroke="#1e1e1e" stroke-width="2" fill="none"></path></g><g transform="translate(208.2910587647109 297.7130313037608) rotate(0 35.7039794921875 10)"><text x="35.7039794921875" y="14.016" font-family="Virgil, Segoe UI Emoji" font-size="16px" fill="#1e1e1e" text-anchor="middle" style="white-space: pre;" direction="ltr" dominant-baseline="alphabetic">Download</text></g><g stroke-linecap="round" transform="translate(308.3244586609661 290.0853850943055) rotate(0 59.064015732126904 15.567269708869787)"><path d="M7.78 0 C49 1.27, 88.99 -0.8, 110.34 0 M7.78 0 C36.95 -0.16, 66.52 -1.59, 110.34 0 M110.34 0 C114.21 -1.18, 117.48 4.29, 118.13 7.78 M110.34 0 C117.22 0.58, 119.7 0.76, 118.13 7.78 M118.13 7.78 C118.97 14.43, 119.49 17.57, 118.13 23.35 M118.13 7.78 C118.75 13.41, 118.44 17.79, 118.13 23.35 M118.13 23.35 C117.15 27.86, 115.17 30.52, 110.34 31.13 M118.13 23.35 C116.06 27.28, 115.26 32.35, 110.34 31.13 M110.34 31.13 C75.79 29.88, 40.6 31.82, 7.78 31.13 M110.34 31.13 C72.66 31.79, 33.21 31.01, 7.78 31.13 M7.78 31.13 C3.64 32.38, 1.34 28.25, 0 23.35 M7.78 31.13 C1.55 32.37, 0.81 27.24, 0 23.35 M0 23.35 C-1.25 18.12, 0.01 15.36, 0 7.78 M0 23.35 C0.56 16.88, 0.42 12.23, 0 7.78 M0 7.78 C-0.71 2.16, 2.2 -1.95, 7.78 0 M0 7.78 C1.63 0.56, 1.66 0.37, 7.78 0" stroke="#1e1e1e" stroke-width="2" fill="none"></path></g><g transform="translate(329.75650112649146 295.6526548031753) rotate(0 37.63197326660156 10)"><text x="37.63197326660156" y="14.016" font-family="Virgil, Segoe UI Emoji" font-size="16px" fill="#1e1e1e" text-anchor="middle" style="white-space: pre;" direction="ltr" dominant-baseline="alphabetic">Fullscreen</text></g><g stroke-linecap="round"><g transform="translate(72.70879947513436 44.11101201856599) rotate(0 -31.426155634904262 35.504361343182126)"><path d="M0.06 -0.96 C-10.26 10.99, -51.4 59.73, -61.81 71.79 M-1.37 1.15 C-11.76 12.76, -51.95 58.73, -62.21 70.07" stroke="#1e1e1e" stroke-width="2" fill="none"></path></g></g><mask></mask><g stroke-linecap="round" transform="translate(650.7102287833752 46.93468588737693) rotate(0 289.5999755859375 164.80001831054685)"><path d="M32 0 C197.65 -0.01, 363.63 -0.71, 547.2 0 M32 0 C221.04 -0.54, 409.36 -0.05, 547.2 0 M547.2 0 C566.85 -0.07, 579.93 10.42, 579.2 32 M547.2 0 C568.56 2.05, 578.61 10.05, 579.2 32 M579.2 32 C581.81 128.67, 579.39 222.95, 579.2 297.6 M579.2 32 C581.4 113.56, 581.48 194.94, 579.2 297.6 M579.2 297.6 C580.36 318.71, 567.79 330.21, 547.2 329.6 M579.2 297.6 C581.19 321.14, 569.77 330.42, 547.2 329.6 M547.2 329.6 C428.33 330.91, 309.12 330.81, 32 329.6 M547.2 329.6 C406.2 330.19, 265.26 330.84, 32 329.6 M32 329.6 C12.24 330.27, -0.57 317.58, 0 297.6 M32 329.6 C12.57 331.69, -1.6 320.11, 0 297.6 M0 297.6 C1.6 195.92, 0.5 97.71, 0 32 M0 297.6 C1.19 234.77, 2.64 171.85, 0 32 M0 32 C0.22 9.9, 9.67 -1.62, 32 0 M0 32 C0.2 12.17, 9.13 1.15, 32 0" stroke="#1e1e1e" stroke-width="2" fill="none"></path></g><g stroke-linecap="round" transform="translate(816.3838464989359 72.0498377842107) rotate(0 121.34136700674249 112.60962349107558)"><path d="M32 0 C81.26 -1.57, 134.02 -3.37, 210.68 0 M32 0 C85 1.11, 137.72 -0.05, 210.68 0 M210.68 0 C233.23 1.6, 243 11.84, 242.68 32 M210.68 0 C233.22 -2.18, 241.6 10.82, 242.68 32 M242.68 32 C244.15 94.49, 243.88 154.82, 242.68 193.22 M242.68 32 C242.95 79.54, 242.62 125.5, 242.68 193.22 M242.68 193.22 C241.31 214.8, 232.81 226.13, 210.68 225.22 M242.68 193.22 C244.08 215.68, 233.14 224.61, 210.68 225.22 M210.68 225.22 C166.24 222.91, 126.81 226, 32 225.22 M210.68 225.22 C151.9 224.92, 90.77 224.52, 32 225.22 M32 225.22 C12.23 223.54, 0.92 214.35, 0 193.22 M32 225.22 C8.81 223.38, 1.34 213.1, 0 193.22 M0 193.22 C0.32 161.61, 0.3 126.76, 0 32 M0 193.22 C0.89 151.71, 0.14 109.39, 0 32 M0 32 C0.36 11.28, 9.02 0.28, 32 0 M0 32 C-1.03 12.85, 9.07 0, 32 0" stroke="#1e1e1e" stroke-width="2" fill="none"></path></g><g transform="translate(908.9757857102682 176.09489010097258) rotate(0 28.749427795410156 8.564571174313727)"><text x="28.749427795410156" y="12.004102957918121" font-family="Virgil, Segoe UI Emoji" font-size="13.703313878901966px" fill="#1e1e1e" text-anchor="middle" style="white-space: pre;" direction="ltr" dominant-baseline="alphabetic">QR Code</text></g><g transform="translate(240.97512999644215 10) rotate(0 38.61598205566406 10)"><text x="0" y="14.016" font-family="Virgil, Segoe UI Emoji" font-size="16px" fill="#1e1e1e" text-anchor="start" style="white-space: pre;" direction="ltr" dominant-baseline="alphabetic">Main page</text></g><g transform="translate(874.9134006921668 14.016635299753887) rotate(0 59.29595947265625 10)"><text x="0" y="14.016" font-family="Virgil, Segoe UI Emoji" font-size="16px" fill="#1e1e1e" text-anchor="start" style="white-space: pre;" direction="ltr" dominant-baseline="alphabetic">Fullscreen page</text></g><g transform="translate(851.3471230868679 324.85622956293173) rotate(0 89.19195556640625 10)"><text x="0" y="14.016" font-family="Virgil, Segoe UI Emoji" font-size="16px" fill="#1e1e1e" text-anchor="start" style="white-space: pre;" direction="ltr" dominant-baseline="alphabetic">Link text here in white</text></g><g transform="translate(1133.4683261923076 28.54718284219149) rotate(0 32.10162353515622 63.21909972544532)"><text x="0" y="101.15270694861078" font-family="Helvetica, Segoe UI Emoji" font-size="109.94626039207881px" fill="#1e1e1e" text-anchor="start" style="white-space: pre;" direction="ltr" dominant-baseline="alphabetic">×</text></g></svg>